<svg width="48" height="52" viewBox="0 0 48 52" fill="none" xmlns="http://www.w3.org/2000/svg">
<rect width="48" height="52" fill="#E5E5E5"/>
<g id="Blog Page" clip-path="url(#clip0_0_1)">
<rect width="1600" height="4551" transform="translate(-1392 -176)" fill="white"/>
<g id="Header">
<g id="Header Right">
<rect id="BG" x="-467" width="515" height="738" fill="#FFDFC6"/>
<g id="Shapes">
<path id="Vector" d="M28 -8.74228e-07L48 0L48 52L28 52L28 -8.74228e-07Z" fill="#666DFF"/>
<path id="Vector_2" d="M0 -6.11959e-07L14 0L14 14L-6.11959e-07 14L0 -6.11959e-07Z" fill="#666DFF"/>
<path id="Vector_3" d="M14 -1.48619e-06L48 0L48 34L14 34L14 -1.48619e-06Z" fill="#FFA155"/>
<path id="Vector_4" d="M28 14L48 14L48 34L28 34L28 14Z" fill="#FFD3AF"/>
</g>
</g>
</g>
</g>
<defs>
<clipPath id="clip0_0_1">
<rect width="1600" height="4551" fill="white" transform="translate(-1392 -176)"/>
</clipPath>
</defs>
</svg>
